<svg width="1000" height="500" viewBox="0 0 1000 500" fill="none" xmlns="http://www.w3.org/2000/svg">
  <style>
    :root {
      --axal-scale: 0.15;
      --worm-scale: 0.25;
    }
    #axal-logo {
      transform: scale(var(--axal-scale));
      transform-origin: 0 250px;
    }
    #worm-logo {
      transform: scale(var(--worm-scale));
      transform-origin: 500px 250px;
    }
  </style>

  <!-- Axal Logo Group -->
  <g id="axal-logo">
    <line y1="-37.5" x2="527.742" y2="-37.5" transform="matrix(0.523946 0.851751 -0.8548 0.518957 943.396 1036.51)" stroke="white" stroke-width="75"/>
    <line y1="-37.5" x2="527.742" y2="-37.5" transform="matrix(0.523953 -0.851747 0.854797 0.518963 1295.32 1486.01)" stroke="white" stroke-width="75"/>
    <rect x="1219.9" y="1461.04" width="75.4114" height="24.9725" fill="white"/>
    <line y1="-37.5" x2="527.742" y2="-37.5" transform="matrix(-0.523946 -0.851751 0.8548 -0.518957 1571.83 1036.51)" stroke="white" stroke-width="75"/>
    <line y1="-37.5" x2="527.742" y2="-37.5" transform="matrix(-0.523953 0.851747 -0.854797 -0.518963 1219.91 587)" stroke="white" stroke-width="75"/>
    <rect x="1295.32" y="611.973" width="75.4114" height="24.9725" transform="rotate(-180 1295.32 611.973)" fill="white"/>
    <line y1="-37.5" x2="527.742" y2="-37.5" transform="matrix(0.523946 0.851751 -0.8548 0.518957 666.878 1486.01)" stroke="white" stroke-width="75"/>
    <line y1="-37.5" x2="527.742" y2="-37.5" transform="matrix(0.523953 -0.851747 0.854797 0.518963 1018.8 1935.51)" stroke="white" stroke-width="75"/>
    <rect x="943.39" y="1910.54" width="75.4114" height="24.9725" fill="white"/>
    <line y1="-37.5" x2="527.742" y2="-37.5" transform="matrix(-0.523946 -0.851751 0.8548 -0.518957 1295.31 1486.01)" stroke="white" stroke-width="75"/>
    <line y1="-37.5" x2="527.742" y2="-37.5" transform="matrix(-0.523953 0.851747 -0.854797 -0.518963 943.396 1036.5)" stroke="white" stroke-width="75"/>
    <rect x="1018.8" y="1061.48" width="75.4114" height="24.9725" transform="rotate(-180 1018.8 1061.48)" fill="white"/>
    <line y1="-37.5" x2="527.742" y2="-37.5" transform="matrix(0.523946 0.851751 -0.8548 0.518957 1219.9 1486.01)" stroke="white" stroke-width="75"/>
    <line y1="-37.5" x2="527.742" y2="-37.5" transform="matrix(0.523953 -0.851747 0.854797 0.518963 1571.82 1935.51)" stroke="white" stroke-width="75"/>
    <rect x="1496.41" y="1910.54" width="75.4114" height="24.9725" fill="white"/>
    <line y1="-37.5" x2="527.742" y2="-37.5" transform="matrix(-0.523946 -0.851751 0.8548 -0.518957 1848.33 1486.01)" stroke="white" stroke-width="75"/>
    <line y1="-37.5" x2="527.742" y2="-37.5" transform="matrix(-0.523953 0.851747 -0.854797 -0.518963 1496.41 1036.5)" stroke="white" stroke-width="75"/>
    <rect x="1571.82" y="1061.48" width="75.4114" height="24.9725" transform="rotate(-180 1571.82 1061.48)" fill="white"/>
  </g>

  <!-- Worm Logo Group -->
  <g id="worm-logo">
    <path d="M73.3731 930L434.656 0H362.878L0 930H73.3731Z" fill="white"/>
    <path d="M795.939 930L434.656 0H506.434L869.312 930H795.939Z" fill="white"/>
    <path d="M434.655 0L478.69 51.6667H390.621L434.655 0Z" fill="white"/>
    <path d="M2016.34 930L2377.62 0H2305.85L1942.97 930H2016.34Z" fill="white"/>
    <path d="M2738.91 930L2377.63 0H2449.4L2812.28 930H2738.91Z" fill="white"/>
    <path d="M2377.62 0L2421.66 51.6667H2333.59L2377.62 0Z" fill="white"/>
    <path d="M1062.69 930L1822.97 0H1751.19L989.312 930H1062.69Z" fill="white"/>
    <path d="M1749.6 930L989.312 0H1061.09L1822.97 930H1749.6Z" fill="white"/>
    <rect x="2932.28" width="72.1693" height="930" fill="white"/>
    <rect x="2968.75" y="930" width="72" height="624" transform="rotate(-90 2968.75 930)" fill="white"/>
  </g>
</svg>