<svg width="141" height="49" viewBox="0 0 141 49" fill="none" xmlns="http://www.w3.org/2000/svg">
<path d="M19.2973 42.025C18.8433 42.9605 18.3096 43.6643 17.2227 43.3516C16.7801 43.2242 16.2324 43.0003 16.0085 42.6459C13.725 39.0317 11.4841 35.3902 9.28169 31.726C9.09275 31.4117 9.10112 30.7801 9.29379 30.4641C14.0212 22.7115 18.7835 14.9802 23.547 7.24972C24.1492 6.27243 25.8257 6.27969 26.4338 7.26598C31.1991 14.9955 35.9623 22.7265 40.689 30.4796C40.8803 30.7934 40.8622 31.4308 40.6684 31.7532C38.4661 35.4168 36.2157 39.0515 33.9659 42.6863C33.3144 43.7389 31.6975 43.6887 31.0283 42.6059C29.2305 39.6972 27.4412 36.7832 25.6465 33.8726C25.4386 33.5354 25.2181 33.2061 24.9648 32.8131C23.0586 35.9154 21.2044 38.9332 19.2973 42.025ZM30.3322 24.2512C29.0754 26.2944 27.8003 28.3267 26.581 30.3921C26.3915 30.7131 26.27 31.297 26.4334 31.5698C28.4143 34.875 30.4545 38.1447 32.5319 41.5087C34.5945 38.1513 36.6048 34.9048 38.5706 31.6316C38.7307 31.3651 38.7249 30.8333 38.5635 30.5646C36.5995 27.2943 34.5918 24.0501 32.532 20.696C31.7934 21.8955 31.1134 22.9996 30.3322 24.2512ZM19.1451 19.7439C21.0679 22.8772 22.9906 26.0105 24.9805 29.2531C27.0763 25.8544 29.103 22.609 31.0603 19.3223C31.2356 19.0278 31.0849 18.3916 30.8753 18.0393C29.48 15.6939 28.0265 13.383 26.5938 11.0598C26.0753 10.2191 25.5622 9.37526 24.985 8.43214C22.9143 11.7946 20.929 14.9733 19.0139 18.1938C18.8098 18.5371 19.0163 19.1245 19.1451 19.7439ZM12.0561 32.7426C13.8198 35.6175 15.5835 38.4925 17.3837 41.4269C17.5305 41.259 17.6517 41.1537 17.7323 41.0233C19.6602 37.9051 21.6015 34.7949 23.4792 31.6468C23.6581 31.347 23.574 30.7239 23.3759 30.3917C21.6027 27.4181 19.7787 24.4749 17.9621 21.5273C17.808 21.2773 17.5997 21.0606 17.3919 20.7971C17.2626 20.9975 17.1947 21.0988 17.1307 21.2025C15.3986 24.0108 13.7341 26.8642 11.9027 29.6061C11.1508 30.7319 11.0614 31.6123 12.0561 32.7426Z" fill="white"/>
<path d="M68.8167 13.1123L77.4956 35.5785L77.2815 35.8755L77.2727 35.8878H75.4317L67.5318 15.0329H66.995L59.1225 35.8878H57.3088L57.3 35.8754L57.0951 35.5915L57.0859 35.5786L65.7375 13.1123H68.8167Z" fill="white"/>
<path d="M82.3359 13.1123L89.0718 22.8962L95.7324 13.1123H97.7181V13.4033L90.318 24.3985L90.3073 24.4144V24.4593L90.3179 24.4752L97.7673 35.5893L97.7722 35.5967V35.8878H95.7106L95.7018 35.8747L88.93 25.7738L82.2633 35.8878H80.2581V35.597L80.2629 35.5898L80.263 35.5897L87.6897 24.2633L87.666 24.2286L80.2984 13.411L80.2983 13.4108L80.2932 13.4033V13.1123H82.3359Z" fill="white"/>
<path d="M112.415 13.1123L121.094 35.5785L120.879 35.8755L120.871 35.8878H119.03L111.13 15.0329H110.593L110.577 15.0737L102.72 35.8878H100.907L100.898 35.8755L100.898 35.8754L100.684 35.5785L109.335 13.1123H112.415Z" fill="white"/>
<path d="M128.024 13.1123V33.9988H140.799V35.8878H125.971V13.1123H128.024Z" fill="white"/>
</svg>
