<?xml version="1.0" standalone="no"?><!DOCTYPE svg PUBLIC "-//W3C//DTD SVG 1.1//EN" "http://www.w3.org/Graphics/SVG/1.1/DTD/svg11.dtd"><svg t="1741165862047" class="icon" viewBox="0 0 1024 1024" version="1.1" xmlns="http://www.w3.org/2000/svg" p-id="5372" xmlns:xlink="http://www.w3.org/1999/xlink" width="200" height="200"><path d="M393.217686 571.644425c32.471552-32.168654 54.531987-58.665121 66.184375-79.488379 11.649318-20.820188 17.476023-42.055838 17.476023-63.703881 0-28.712949-9.097192-51.562353-27.285436-68.551282-18.191314-16.986883-42.996257-25.481348-74.414827-25.481348-36.531008 0-68.551282 10.598382-96.061846 31.795147l0 44.874023c28.261671-26.457582 57.9529-39.687908 89.071641-39.687908 21.045315 0 37.129642 5.299703 48.257074 15.898085 11.123338 10.598382 16.687054 25.820062 16.687054 45.662992 0 17.440208-4.735861 34.314527-14.20656 50.623981-9.470699 16.313547-28.186969 38.44766-56.148811 66.409502l-101.474113 101.248985 0 38.335097 212.419947 0 0-39.23663L313.616744 650.342812l0-0.902556L393.217686 571.644425z" fill="#272636" p-id="5373"></path><path d="M717.935256 689.579441l0-90.650603 44.648896 0 0-34.952047L717.935256 563.976792l0-223.694735-51.187823 0L512.281409 570.290591l0 28.638247 162.810063 0 0 90.650603L717.935256 689.579441zM557.831838 563.976792l103.954607-155.36858c6.765077-12.177344 11.19804-21.120017 13.304004-26.834158l0.901533 0c-0.603751 13.530155-0.901533 25.481348-0.901533 35.854603l0 146.348136L557.831838 563.976792z" fill="#272636" p-id="5374"></path><path d="M940.749948 341.67273c0-0.049119 0.007163-0.097214 0.007163-0.146333L940.757111 158.294213c0-11.706623-9.491165-21.196765-21.196765-21.196765-11.7056 0-21.196765 9.490142-21.196765 21.196765l0 101.69617C848.350514 186.495508 777.538749 129.686664 692.991144 96.464005 581.991074 52.846602 460.662775 55.066153 351.33581 102.709243c-225.683019 98.352005-329.275375 361.974102-230.924393 587.658144 47.644113 109.324918 135.00888 193.552228 246.003833 237.168608 52.92949 20.798698 108.192118 31.174 163.399487 31.174 60.565401 0 121.064286-12.496615 178.254823-37.421284 79.650061-34.71157 146.886395-91.26254 194.438411-163.537633 6.433526-9.778714 3.721765-22.923082-6.058996-29.358655-9.780761-6.437619-22.923082-3.721765-29.358655 6.058996-43.017746 65.388243-103.864556 116.555599-175.957501 147.975193-98.946546 43.1211-208.759581 45.12985-309.214481 5.652743-100.453876-39.474037-179.524746-115.705232-222.6438-214.648708C70.26225 469.176682 164.017564 230.584656 368.272551 141.572366c98.945523-43.119053 208.758558-45.12985 309.212434-5.652743 89.958848 35.350113 162.746618 100.19191 207.946053 184.411033l-75.874061 0c-11.7056 0-21.196765 9.490142-21.196765 21.196765s9.491165 21.196765 21.196765 21.196765l105.210203 0c4.287653 1.000793 8.916067 0.701988 13.262048-1.190105C936.13893 357.998557 940.9147 350.001419 940.749948 341.67273z" fill="#272636" p-id="5375"></path></svg>