<svg width="329" height="64" viewBox="0 0 329 64" fill="none" xmlns="http://www.w3.org/2000/svg">
                <rect width="329" height="64" rx="5" fill="#232323"></rect>
                <path d="M108.58 30.3381C108.537 25.7014 112.473 23.4457 112.653 23.3406C110.424 20.1714 106.968 19.7383 105.754 19.7038C102.852 19.406 100.036 21.3971 98.5579 21.3971C97.05 21.3971 94.7732 19.7326 92.3195 19.7815C89.1619 19.829 86.2079 21.6114 84.5878 24.3793C81.2443 30.023 83.7379 38.3167 86.9412 42.8786C88.5436 45.1128 90.4161 47.6073 92.8669 47.5196C95.2646 47.4232 96.1602 46.0292 99.0537 46.0292C101.921 46.0292 102.762 47.5196 105.261 47.4635C107.834 47.4232 109.455 45.2192 111.001 42.9649C112.853 40.4041 113.596 37.8822 113.626 37.7528C113.565 37.7326 108.628 35.8955 108.58 30.3381Z" fill="white"></path>
                <path d="M103.858 16.7028C105.148 15.1304 106.03 12.9912 105.785 10.8203C103.918 10.9009 101.584 12.0791 100.24 13.617C99.0507 14.9722 97.9884 17.1934 98.2628 19.2823C100.36 19.4348 102.512 18.2508 103.858 16.7028Z" fill="white"></path>
                <path d="M143.279 47.1999H139.928L138.092 41.5763H131.712L129.964 47.1999H126.701L133.022 28.0547H136.926L143.279 47.1999ZM137.539 39.217L135.879 34.2177C135.703 33.707 135.374 32.5043 134.889 30.6111H134.83C134.636 31.4254 134.325 32.6281 133.897 34.2177L132.267 39.217H137.539Z" fill="white"></path>
                <path d="M159.534 40.1255C159.534 42.4734 158.883 44.3292 157.582 45.6916C156.416 46.9043 154.968 47.51 153.241 47.51C151.376 47.51 150.036 46.8569 149.22 45.5506H149.161V52.8228H146.015V37.9374C146.015 36.4614 145.975 34.9465 145.898 33.3928H148.665L148.841 35.5809H148.9C149.949 33.9323 151.541 33.1094 153.677 33.1094C155.348 33.1094 156.742 33.7524 157.857 35.04C158.976 36.329 159.534 38.0237 159.534 40.1255ZM156.329 40.2378C156.329 38.8941 156.019 37.7863 155.396 36.9145C154.716 36.0053 153.803 35.5507 152.658 35.5507C151.882 35.5507 151.176 35.8039 150.546 36.3031C149.915 36.8066 149.502 37.4641 149.308 38.2783C149.211 38.6581 149.162 38.9689 149.162 39.2135V41.5152C149.162 42.5194 149.478 43.3668 150.11 44.0587C150.741 44.7507 151.561 45.096 152.571 45.096C153.756 45.096 154.678 44.65 155.337 43.7609C155.998 42.8704 156.329 41.6965 156.329 40.2378Z" fill="white"></path>
                <path d="M175.819 40.1255C175.819 42.4734 175.169 44.3292 173.866 45.6916C172.702 46.9043 171.254 47.51 169.526 47.51C167.661 47.51 166.321 46.8569 165.507 45.5506H165.448V52.8228H162.302V37.9374C162.302 36.4614 162.262 34.9465 162.186 33.3928H164.952L165.128 35.5809H165.187C166.234 33.9323 167.826 33.1094 169.964 33.1094C171.633 33.1094 173.028 33.7524 174.146 35.04C175.26 36.329 175.819 38.0237 175.819 40.1255ZM172.614 40.2378C172.614 38.8941 172.303 37.7863 171.68 36.9145C171 36.0053 170.09 35.5507 168.943 35.5507C168.166 35.5507 167.462 35.8039 166.83 36.3031C166.199 36.8066 165.787 37.4641 165.594 38.2783C165.498 38.6581 165.448 38.9689 165.448 39.2135V41.5152C165.448 42.5194 165.764 43.3668 166.392 44.0587C167.024 44.7493 167.844 45.096 168.856 45.096C170.041 45.096 170.963 44.65 171.623 43.7609C172.284 42.8704 172.614 41.6965 172.614 40.2378Z" fill="white"></path>
                <path d="M194.028 41.8302C194.028 43.4587 193.448 44.7837 192.283 45.8066C191.004 46.9244 189.223 47.4826 186.935 47.4826C184.822 47.4826 183.128 47.0855 181.846 46.29L182.575 43.7335C183.956 44.5478 185.471 44.9564 187.122 44.9564C188.307 44.9564 189.229 44.6945 189.892 44.1737C190.551 43.653 190.88 42.9538 190.88 42.082C190.88 41.3051 190.609 40.6506 190.064 40.1197C189.523 39.5889 188.618 39.0954 187.355 38.6394C183.917 37.3892 182.2 35.5578 182.2 33.1496C182.2 31.5757 182.802 30.2853 184.007 29.2811C185.208 28.2755 186.811 27.7734 188.815 27.7734C190.601 27.7734 192.086 28.077 193.271 28.6826L192.484 31.183C191.377 30.596 190.126 30.3025 188.726 30.3025C187.619 30.3025 186.755 30.5687 186.135 31.0981C185.611 31.5714 185.349 32.1483 185.349 32.8316C185.349 33.5884 185.648 34.2142 186.25 34.7062C186.774 35.1608 187.726 35.6528 189.107 36.1836C190.796 36.8468 192.037 37.6223 192.835 38.5113C193.631 39.3975 194.028 40.5067 194.028 41.8302Z" fill="white"></path>
                <path d="M204.428 35.6947H200.96V42.3972C200.96 44.102 201.571 44.9536 202.796 44.9536C203.358 44.9536 203.824 44.9062 204.193 44.8112L204.28 47.1404C203.66 47.3662 202.844 47.4799 201.834 47.4799C200.591 47.4799 199.62 47.1101 198.919 46.3721C198.222 45.6327 197.87 44.3926 197.87 42.6504V35.6918H195.805V33.39H197.87V30.8623L200.96 29.9531V33.39H204.428V35.6947Z" fill="white"></path>
                <path d="M220.073 40.1841C220.073 42.3061 219.451 44.0483 218.208 45.4106C216.905 46.8133 215.176 47.5125 213.02 47.5125C210.943 47.5125 209.289 46.8406 208.055 45.4969C206.822 44.1533 206.205 42.4571 206.205 40.4129C206.205 38.2736 206.84 36.5214 208.113 35.159C209.383 33.7952 211.098 33.1133 213.254 33.1133C215.331 33.1133 217.003 33.7851 218.264 35.1302C219.471 36.4351 220.073 38.1197 220.073 40.1841ZM216.81 40.2834C216.81 39.0102 216.531 37.9183 215.966 37.0076C215.306 35.9056 214.363 35.3561 213.141 35.3561C211.877 35.3561 210.916 35.9071 210.257 37.0076C209.692 37.9197 209.413 39.0289 209.413 40.3409C209.413 41.6141 209.692 42.706 210.257 43.6152C210.937 44.7172 211.887 45.2668 213.113 45.2668C214.314 45.2668 215.257 44.7057 215.938 43.5865C216.517 42.6585 216.81 41.5551 216.81 40.2834Z" fill="white"></path>
                <path d="M230.298 36.0902C229.987 36.0341 229.655 36.0053 229.306 36.0053C228.2 36.0053 227.344 36.4125 226.742 37.2282C226.218 37.9475 225.956 38.8567 225.956 39.9543V47.1978H222.811L222.841 37.7403C222.841 36.1492 222.801 34.7005 222.723 33.3942H225.463L225.578 36.0355H225.665C225.997 35.1278 226.521 34.3969 227.238 33.8488C227.939 33.3554 228.696 33.1094 229.512 33.1094C229.802 33.1094 230.065 33.1295 230.298 33.1655V36.0902Z" fill="white"></path>
                <path d="M244.366 39.6407C244.366 40.1903 244.329 40.6535 244.251 41.0319H234.814C234.851 42.3957 235.307 43.4387 236.183 44.158C236.978 44.8011 238.007 45.1233 239.27 45.1233C240.667 45.1233 241.942 44.9061 243.089 44.4702L243.581 46.5993C242.242 47.169 240.66 47.4524 238.835 47.4524C236.639 47.4524 234.916 46.8223 233.662 45.5635C232.41 44.3047 231.783 42.6143 231.783 40.4938C231.783 38.4121 232.366 36.6786 233.533 35.2961C234.755 33.82 236.406 33.082 238.483 33.082C240.524 33.082 242.069 33.82 243.118 35.2961C243.949 36.4685 244.366 37.9187 244.366 39.6407ZM241.367 38.8452C241.387 37.9359 241.182 37.1505 240.756 36.4872C240.211 35.6341 239.375 35.2083 238.249 35.2083C237.22 35.2083 236.384 35.6241 235.745 36.4585C235.221 37.1217 234.91 37.9172 234.814 38.8437H241.367V38.8452Z" fill="white"></path>
                <path d="M136.5 16.273C136.5 17.9663 135.979 19.2409 134.939 20.0969C133.975 20.8867 132.606 21.2823 130.832 21.2823C129.953 21.2823 129.2 21.2449 128.57 21.1701V11.9183C129.392 11.7888 130.277 11.7227 131.234 11.7227C132.923 11.7227 134.196 12.0809 135.055 12.7973C136.017 13.6073 136.5 14.7653 136.5 16.273ZM134.869 16.3147C134.869 15.2171 134.571 14.3755 133.975 13.7885C133.379 13.203 132.508 12.9095 131.362 12.9095C130.875 12.9095 130.46 12.9412 130.117 13.0073V20.0408C130.307 20.0695 130.655 20.0825 131.161 20.0825C132.345 20.0825 133.258 19.7617 133.901 19.1201C134.545 18.4784 134.869 17.5433 134.869 16.3147Z" fill="white"></path>
                <path d="M145.144 17.7502C145.144 18.7932 144.839 19.6477 144.228 20.3181C143.588 21.0072 142.739 21.3511 141.68 21.3511C140.659 21.3511 139.846 21.0216 139.239 20.3598C138.635 19.6995 138.332 18.8665 138.332 17.8624C138.332 16.8122 138.643 15.9505 139.269 15.2815C139.895 14.6125 140.736 14.2773 141.795 14.2773C142.816 14.2773 143.636 14.6068 144.258 15.2671C144.848 15.9087 145.144 16.7374 145.144 17.7502ZM143.541 17.7991C143.541 17.1733 143.402 16.6367 143.126 16.1893C142.801 15.6484 142.34 15.3779 141.739 15.3779C141.118 15.3779 140.646 15.6484 140.321 16.1893C140.044 16.6367 139.906 17.1819 139.906 17.8264C139.906 18.4522 140.045 18.9888 140.321 19.4362C140.656 19.9772 141.122 20.2476 141.724 20.2476C142.314 20.2476 142.778 19.9729 143.111 19.4219C143.397 18.9658 143.541 18.4249 143.541 17.7991Z" fill="white"></path>
                <path d="M156.736 14.418L154.56 21.1996H153.143L152.242 18.2548C152.013 17.5196 151.827 16.7888 151.682 16.0638H151.654C151.52 16.809 151.334 17.5383 151.095 18.2548L150.137 21.1996H148.705L146.658 14.418H148.247L149.034 17.6419C149.224 18.4044 149.381 19.1309 149.506 19.8186H149.534C149.649 19.2517 149.839 18.5296 150.108 17.6563L151.095 14.4194H152.355L153.301 17.5873C153.53 18.3598 153.716 19.1036 153.859 19.82H153.901C154.006 19.1223 154.164 18.3785 154.374 17.5873L155.218 14.4194H156.736V14.418Z" fill="white"></path>
                <path d="M164.753 21.1975H163.207V17.3132C163.207 16.1163 162.74 15.5178 161.805 15.5178C161.346 15.5178 160.976 15.6818 160.688 16.0113C160.403 16.3407 160.259 16.7292 160.259 17.1737V21.1961H158.712V16.3537C158.712 15.7581 158.693 15.1122 158.656 14.413H160.015L160.087 15.4733H160.13C160.31 15.1438 160.579 14.8719 160.931 14.6547C161.351 14.4015 161.82 14.2734 162.333 14.2734C162.982 14.2734 163.522 14.4777 163.952 14.8877C164.486 15.3898 164.753 16.1393 164.753 17.1349V21.1975Z" fill="white"></path>
                <path d="M169.018 21.1981H167.473V11.3047H169.018V21.1981Z" fill="white"></path>
                <path d="M178.121 17.7502C178.121 18.7932 177.816 19.6477 177.205 20.3181C176.564 21.0072 175.714 21.3511 174.657 21.3511C173.634 21.3511 172.821 21.0216 172.216 20.3598C171.611 19.6995 171.309 18.8665 171.309 17.8624C171.309 16.8122 171.62 15.9505 172.246 15.2815C172.871 14.6125 173.712 14.2773 174.77 14.2773C175.793 14.2773 176.612 14.6068 177.234 15.2671C177.824 15.9087 178.121 16.7374 178.121 17.7502ZM176.516 17.7991C176.516 17.1733 176.377 16.6367 176.101 16.1893C175.778 15.6484 175.315 15.3779 174.716 15.3779C174.093 15.3779 173.621 15.6484 173.298 16.1893C173.02 16.6367 172.883 17.1819 172.883 17.8264C172.883 18.4522 173.022 18.9888 173.298 19.4362C173.633 19.9772 174.099 20.2476 174.701 20.2476C175.291 20.2476 175.753 19.9729 176.086 19.4219C176.374 18.9658 176.516 18.4249 176.516 17.7991Z" fill="white"></path>
                <path d="M185.605 21.1971H184.216L184.101 20.4159H184.058C183.583 21.0389 182.906 21.3511 182.027 21.3511C181.37 21.3511 180.839 21.1453 180.439 20.7368C180.076 20.3656 179.895 19.9038 179.895 19.3557C179.895 18.527 180.249 17.8955 180.961 17.4581C181.673 17.0208 182.673 16.8064 183.961 16.8165V16.6899C183.961 15.7965 183.48 15.3506 182.517 15.3506C181.83 15.3506 181.225 15.5189 180.703 15.8526L180.389 14.8629C181.035 14.473 181.833 14.2773 182.775 14.2773C184.593 14.2773 185.504 15.2124 185.504 17.0827V19.5801C185.504 20.2577 185.538 20.7972 185.605 21.1971ZM183.999 18.8665V17.8207C182.294 17.7919 181.441 18.2479 181.441 19.1874C181.441 19.5413 181.538 19.806 181.737 19.9829C181.937 20.1599 182.19 20.2476 182.493 20.2476C182.832 20.2476 183.15 20.1426 183.439 19.934C183.729 19.724 183.908 19.4578 183.974 19.1313C183.991 19.0579 183.999 18.9687 183.999 18.8665Z" fill="white"></path>
                <path d="M194.39 21.1981H193.018L192.945 20.1091H192.902C192.464 20.9377 191.718 21.352 190.669 21.352C189.83 21.352 189.133 21.0312 188.579 20.3896C188.026 19.748 187.75 18.915 187.75 17.8921C187.75 16.7945 188.05 15.9054 188.652 15.2264C189.234 14.5934 189.948 14.2769 190.798 14.2769C191.732 14.2769 192.386 14.5833 192.758 15.1976H192.787V11.3047H194.335V19.371C194.335 20.0314 194.353 20.6399 194.39 21.1981ZM192.787 18.3381V17.2074C192.787 17.0117 192.773 16.8535 192.745 16.7326C192.658 16.3701 192.47 16.0651 192.185 15.8191C191.898 15.5731 191.551 15.4494 191.151 15.4494C190.574 15.4494 190.123 15.6723 189.791 16.1198C189.462 16.5672 189.295 17.1383 189.295 17.836C189.295 18.5064 189.453 19.0502 189.77 19.4689C190.105 19.9148 190.556 20.1378 191.122 20.1378C191.629 20.1378 192.035 19.9522 192.343 19.5796C192.641 19.2358 192.787 18.8215 192.787 18.3381Z" fill="white"></path>
                <path d="M207.617 17.7502C207.617 18.7932 207.312 19.6477 206.701 20.3181C206.06 21.0072 205.214 21.3511 204.153 21.3511C203.133 21.3511 202.32 21.0216 201.712 20.3598C201.107 19.6995 200.805 18.8665 200.805 17.8624C200.805 16.8122 201.116 15.9505 201.742 15.2815C202.367 14.6125 203.208 14.2773 204.269 14.2773C205.289 14.2773 206.111 14.6068 206.73 15.2671C207.321 15.9087 207.617 16.7374 207.617 17.7502ZM206.015 17.7991C206.015 17.1733 205.876 16.6367 205.6 16.1893C205.274 15.6484 204.814 15.3779 204.212 15.3779C203.592 15.3779 203.12 15.6484 202.794 16.1893C202.516 16.6367 202.379 17.1819 202.379 17.8264C202.379 18.4522 202.518 18.9888 202.794 19.4362C203.129 19.9772 203.595 20.2476 204.197 20.2476C204.787 20.2476 205.252 19.9729 205.585 19.4219C205.87 18.9658 206.015 18.4249 206.015 17.7991Z" fill="white"></path>
                <path d="M215.931 21.1975H214.386V17.3132C214.386 16.1163 213.92 15.5178 212.983 15.5178C212.524 15.5178 212.154 15.6818 211.868 16.0113C211.581 16.3407 211.438 16.7292 211.438 17.1737V21.1961H209.891V16.3537C209.891 15.7581 209.873 15.1122 209.836 14.413H211.193L211.266 15.4733H211.308C211.49 15.1438 211.759 14.8719 212.11 14.6547C212.53 14.4015 212.998 14.2734 213.513 14.2734C214.161 14.2734 214.701 14.4777 215.13 14.8877C215.666 15.3898 215.931 16.1393 215.931 17.1349V21.1975Z" fill="white"></path>
                <path d="M226.338 15.5448H224.635V18.8393C224.635 19.6765 224.937 20.0952 225.537 20.0952C225.814 20.0952 226.044 20.0722 226.226 20.0247L226.265 21.1684C225.96 21.2806 225.559 21.3367 225.064 21.3367C224.454 21.3367 223.978 21.1555 223.635 20.7929C223.289 20.4304 223.118 19.8204 223.118 18.9644V15.5448H222.102V14.4155H223.118V13.1725L224.634 12.7266V14.4141H226.336V15.5448H226.338Z" fill="white"></path>
                <path d="M234.523 21.1981H232.975V17.3426C232.975 16.127 232.509 15.5184 231.575 15.5184C230.858 15.5184 230.368 15.8709 230.1 16.5758C230.054 16.724 230.027 16.9052 230.027 17.1182V21.1967H228.482V11.3047H230.027V15.3918H230.057C230.544 14.648 231.242 14.2769 232.146 14.2769C232.787 14.2769 233.316 14.4812 233.737 14.8912C234.261 15.4019 234.523 16.1615 234.523 17.1656V21.1981Z" fill="white"></path>
                <path d="M242.969 17.4867C242.969 17.7572 242.948 17.9845 242.911 18.17H238.274C238.295 18.8404 238.516 19.3512 238.945 19.7051C239.338 20.0216 239.844 20.1798 240.464 20.1798C241.15 20.1798 241.775 20.0733 242.339 19.859L242.581 20.9063C241.921 21.1854 241.145 21.3249 240.247 21.3249C239.17 21.3249 238.321 21.0156 237.707 20.397C237.091 19.7784 236.785 18.9483 236.785 17.9068C236.785 16.8839 237.07 16.0323 237.644 15.3532C238.243 14.6282 239.053 14.2656 240.076 14.2656C241.076 14.2656 241.836 14.6282 242.349 15.3532C242.764 15.9287 242.969 16.6408 242.969 17.4867ZM241.494 17.0968C241.505 16.6494 241.403 16.2639 241.194 15.9387C240.925 15.5201 240.517 15.3101 239.963 15.3101C239.459 15.3101 239.047 15.5143 238.733 15.9244C238.476 16.2509 238.324 16.6408 238.274 17.0968H241.494Z" fill="white"></path>
            </svg>
            