<svg width="329" height="64" viewBox="0 0 329 64" fill="none" xmlns="http://www.w3.org/2000/svg">
                <rect width="329" height="64" rx="5" fill="#232323"></rect>
                <path d="M137.136 19.0174C137.136 20.1029 136.803 20.9723 136.147 21.6206C135.393 22.3893 134.412 22.776 133.208 22.776C132.058 22.776 131.076 22.3827 130.271 21.6076C129.463 20.8211 129.061 19.8559 129.061 18.7005C129.061 17.5451 129.463 16.5799 130.271 15.7999C131.076 15.0183 132.058 14.625 133.208 14.625C133.781 14.625 134.327 14.7404 134.848 14.9549C135.367 15.171 135.79 15.4635 136.096 15.8242L135.4 16.51C134.866 15.8941 134.139 15.5903 133.208 15.5903C132.369 15.5903 131.642 15.8762 131.025 16.4531C130.414 17.0316 130.107 17.7808 130.107 18.7005C130.107 19.6202 130.414 20.3759 131.025 20.9544C131.642 21.5247 132.369 21.8172 133.208 21.8172C134.099 21.8172 134.848 21.5247 135.438 20.9479C135.828 20.566 136.049 20.0395 136.108 19.3667H133.208V18.4275H137.076C137.123 18.6306 137.136 18.8272 137.136 19.0174Z" fill="white" stroke="white" stroke-width="0.16" stroke-miterlimit="10"></path>
                <path d="M143.273 15.7579H139.64V18.2279H142.915V19.1672H139.64V21.6372H143.273V22.5943H138.611V14.8008H143.273V15.7579Z" fill="white" stroke="white" stroke-width="0.16" stroke-miterlimit="10"></path>
                <path d="M147.605 22.5943H146.576V15.7579H144.348V14.8008H149.835V15.7579H147.605V22.5943Z" fill="white" stroke="white" stroke-width="0.16" stroke-miterlimit="10"></path>
                <path d="M153.807 22.5943V14.8008H154.834V22.5943H153.807Z" fill="white" stroke="white" stroke-width="0.16" stroke-miterlimit="10"></path>
                <path d="M159.384 22.5943H158.364V15.7579H156.127V14.8008H161.621V15.7579H159.384V22.5943Z" fill="white" stroke="white" stroke-width="0.16" stroke-miterlimit="10"></path>
                <path d="M172.01 21.5946C171.223 22.3827 170.247 22.776 169.084 22.776C167.914 22.776 166.939 22.3827 166.151 21.5946C165.366 20.8081 164.975 19.8429 164.975 18.7005C164.975 17.5581 165.366 16.5929 166.151 15.8064C166.939 15.0183 167.914 14.625 169.084 14.625C170.241 14.625 171.216 15.0182 172.003 15.8129C172.796 16.6059 173.187 17.5646 173.187 18.7005C173.187 19.8429 172.796 20.8081 172.01 21.5946ZM166.912 20.9414C167.504 21.5247 168.225 21.8172 169.084 21.8172C169.936 21.8172 170.663 21.5247 171.249 20.9414C171.84 20.358 172.14 19.6089 172.14 18.7005C172.14 17.7921 171.84 17.043 171.249 16.4596C170.663 15.8763 169.936 15.5837 169.084 15.5837C168.225 15.5837 167.504 15.8763 166.912 16.4596C166.321 17.043 166.022 17.7921 166.022 18.7005C166.022 19.6089 166.321 20.358 166.912 20.9414Z" fill="white" stroke="white" stroke-width="0.16" stroke-miterlimit="10"></path>
                <path d="M174.631 22.5943V14.8008H175.879L179.76 20.862H179.805L179.76 19.3638V14.8008H180.787V22.5943H179.716L175.651 16.234H175.606L175.651 17.7388V22.5943H174.631Z" fill="white" stroke="white" stroke-width="0.16" stroke-miterlimit="10"></path>
                <path d="M164.722 33.9775C161.594 33.9775 159.039 36.3013 159.039 39.5074C159.039 42.6875 161.594 45.0356 164.722 45.0356C167.856 45.0356 170.41 42.6875 170.41 39.5074C170.41 36.3013 167.856 33.9775 164.722 33.9775ZM164.722 42.8581C163.006 42.8581 161.529 41.4753 161.529 39.5074C161.529 37.5135 163.006 36.155 164.722 36.155C166.437 36.155 167.92 37.5135 167.92 39.5074C167.92 41.4753 166.437 42.8581 164.722 42.8581ZM152.324 33.9775C149.19 33.9775 146.641 36.3013 146.641 39.5074C146.641 42.6875 149.19 45.0356 152.324 45.0356C155.456 45.0356 158.006 42.6875 158.006 39.5074C158.006 36.3013 155.456 33.9775 152.324 33.9775ZM152.324 42.8581C150.606 42.8581 149.125 41.4753 149.125 39.5074C149.125 37.5135 150.606 36.155 152.324 36.155C154.04 36.155 155.516 37.5135 155.516 39.5074C155.516 41.4753 154.04 42.8581 152.324 42.8581ZM137.571 35.6724V38.0221H143.318C143.15 39.3351 142.7 40.3004 142.011 40.9731C141.172 41.7856 139.866 42.6875 137.571 42.6875C134.034 42.6875 131.264 39.9006 131.264 36.4475C131.264 32.9944 134.034 30.2075 137.571 30.2075C139.483 30.2075 140.874 30.9371 141.901 31.8829L143.597 30.227C142.161 28.888 140.25 27.8594 137.571 27.8594C132.721 27.8594 128.645 31.7123 128.645 36.4475C128.645 41.1828 132.721 45.0356 137.571 45.0356C140.192 45.0356 142.161 44.1971 143.709 42.6241C145.295 41.0755 145.789 38.898 145.789 37.1398C145.789 36.5938 145.743 36.0916 145.659 35.6724H137.571ZM197.898 37.494C197.43 36.2574 195.987 33.9775 193.048 33.9775C190.135 33.9775 187.71 36.2184 187.71 39.5074C187.71 42.6046 190.11 45.0356 193.327 45.0356C195.929 45.0356 197.43 43.487 198.047 42.5851L196.117 41.329C195.473 42.2488 194.595 42.8581 193.327 42.8581C192.067 42.8581 191.163 42.2943 190.584 41.1828L198.159 38.1229L197.898 37.494ZM190.175 39.3351C190.11 37.2031 191.871 36.1111 193.132 36.1111C194.121 36.1111 194.96 36.5938 195.24 37.2844L190.175 39.3351ZM184.018 44.6993H186.508V28.4493H184.018V44.6993ZM179.941 35.2093H179.857C179.298 34.5625 178.231 33.9775 176.88 33.9775C174.044 33.9775 171.451 36.4085 171.451 39.5253C171.451 42.6241 174.044 45.0356 176.88 45.0356C178.231 45.0356 179.298 44.4458 179.857 43.7795H179.941V44.5725C179.941 46.6866 178.784 47.8225 176.918 47.8225C175.397 47.8225 174.453 46.75 174.064 45.8481L171.898 46.7305C172.522 48.1963 174.175 50 176.918 50C179.837 50 182.301 48.323 182.301 44.2426V34.3139H179.941V35.2093ZM177.093 42.8581C175.377 42.8581 173.94 41.4558 173.94 39.5253C173.94 37.5769 175.377 36.155 177.093 36.155C178.784 36.155 180.117 37.5769 180.117 39.5253C180.117 41.4558 178.784 42.8581 177.093 42.8581ZM209.555 28.4493H203.6V44.6993H206.083V38.5421H209.555C212.313 38.5421 215.017 36.5938 215.017 33.4949C215.017 30.3976 212.306 28.4493 209.555 28.4493ZM209.62 36.2818H206.083V30.7096H209.62C211.474 30.7096 212.532 32.2128 212.532 33.4949C212.532 34.7526 211.474 36.2818 209.62 36.2818ZM224.97 33.9466C223.176 33.9466 221.31 34.7201 220.543 36.4345L222.747 37.3364C223.221 36.4345 224.093 36.142 225.015 36.142C226.303 36.142 227.61 36.8976 227.63 38.2318V38.4024C227.181 38.1489 226.219 37.7735 225.035 37.7735C222.662 37.7735 220.243 39.0491 220.243 41.4298C220.243 43.6073 222.187 45.0096 224.373 45.0096C226.044 45.0096 226.966 44.2735 227.545 43.4171H227.63V44.6732H230.028V38.4398C230.028 35.5586 227.825 33.9466 224.97 33.9466ZM224.671 42.8516C223.858 42.8516 222.727 42.4584 222.727 41.4753C222.727 40.2175 224.138 39.7349 225.36 39.7349C226.453 39.7349 226.966 39.9705 227.63 40.2809C227.435 41.7856 226.109 42.8516 224.671 42.8516ZM238.766 34.3025L235.912 41.3469H235.827L232.876 34.3025H230.198L234.632 44.1468L232.102 49.6246H234.697L241.529 34.3025H238.766ZM216.382 44.6993H218.872V28.4493H216.382V44.6993Z" fill="white"></path>
                <path d="M87.8948 15.4987C87.5037 15.8984 87.2773 16.5208 87.2773 17.3268V46.0763C87.2773 46.8823 87.5037 47.5047 87.8948 47.9044L87.9914 47.9922L104.492 31.8884V31.5082L87.9914 15.4044L87.8948 15.4987Z" fill="url(#paint0_linear_7470_297056)"></path>
                <path d="M109.986 37.2617L104.492 31.8911V31.5108L109.993 26.1402L110.116 26.2101L116.63 29.829C118.49 30.856 118.49 32.546 116.63 33.5795L110.116 37.1918L109.986 37.2617Z" fill="url(#paint1_linear_7470_297056)"></path>
                <path d="M110.116 37.1914L104.492 31.7005L87.8945 47.9067C88.512 48.5404 89.519 48.6168 90.6641 47.983L110.116 37.1914Z" fill="url(#paint2_linear_7470_297056)"></path>
                <path d="M110.116 26.2083L90.6641 15.4167C89.519 14.7895 88.512 14.8658 87.8945 15.4996L104.492 31.6992L110.116 26.2083Z" fill="url(#paint3_linear_7470_297056)"></path>
                <defs>
                    <linearGradient id="paint0_linear_7470_297056" x1="103.027" y1="46.3757" x2="81.2161" y2="24.0363" gradientUnits="userSpaceOnUse">
                        <stop stop-color="#00A0FF"></stop>
                        <stop offset="0.0066" stop-color="#00A1FF"></stop>
                        <stop offset="0.2601" stop-color="#00BEFF"></stop>
                        <stop offset="0.5122" stop-color="#00D2FF"></stop>
                        <stop offset="0.7604" stop-color="#00DFFF"></stop>
                        <stop offset="1" stop-color="#00E3FF"></stop>
                    </linearGradient>
                    <linearGradient id="paint1_linear_7470_297056" x1="119.051" y1="31.6991" x2="86.8332" y2="31.6991" gradientUnits="userSpaceOnUse">
                        <stop stop-color="#FFE000"></stop>
                        <stop offset="0.4087" stop-color="#FFBD00"></stop>
                        <stop offset="0.7754" stop-color="#FFA500"></stop>
                        <stop offset="1" stop-color="#FF9C00"></stop>
                    </linearGradient>
                    <linearGradient id="paint2_linear_7470_297056" x1="107.057" y1="28.7156" x2="77.4802" y2="-1.5784" gradientUnits="userSpaceOnUse">
                        <stop stop-color="#FF3A44"></stop>
                        <stop offset="1" stop-color="#C31162"></stop>
                    </linearGradient>
                    <linearGradient id="paint3_linear_7470_297056" x1="83.7167" y1="57.4702" x2="96.9243" y2="43.9427" gradientUnits="userSpaceOnUse">
                        <stop stop-color="#32A071"></stop>
                        <stop offset="0.0685" stop-color="#2DA771"></stop>
                        <stop offset="0.4762" stop-color="#15CF74"></stop>
                        <stop offset="0.8009" stop-color="#06E775"></stop>
                        <stop offset="1" stop-color="#00F076"></stop>
                    </linearGradient>
                </defs>
            </svg>
            