<?xml version="1.0" standalone="no"?><!DOCTYPE svg PUBLIC "-//W3C//DTD SVG 1.1//EN" "http://www.w3.org/Graphics/SVG/1.1/DTD/svg11.dtd"><svg t="1741165898767" class="icon" viewBox="0 0 1024 1024" version="1.1" xmlns="http://www.w3.org/2000/svg" p-id="7251" xmlns:xlink="http://www.w3.org/1999/xlink" width="200" height="200"><path d="M450.56 601.6H220.774a28.774 28.774 0 1 1 0-57.6h232.09c8.602-35.277 40.448-61.44 78.336-61.44h409.6c44.544 0 80.64 36.096 80.64 80.64v281.6c0 44.544-36.096 80.64-80.64 80.64h-18.944l-15.565 44.34a29.44 29.44 0 0 1-42.137 15.922l-108.34-60.262H531.2c-41.882 0-76.288-31.898-80.23-72.704h-39.168c-4.66 0-9.216 1.536-12.954 4.3l-114.33 84.788a55.04 55.04 0 0 1-83.353-22.528l-22.938-53.402a21.76 21.76 0 0 0-19.968-13.158H128a93.44 93.44 0 0 1-93.44-93.44V247.04c0-51.61 41.83-93.44 93.44-93.44h736c51.61 0 93.44 41.83 93.44 93.44v156.826a29.44 29.44 0 0 1-58.88 0V247.04A34.56 34.56 0 0 0 864 212.48H128a34.56 34.56 0 0 0-34.56 34.56v512.256c0 19.098 15.462 34.56 34.56 34.56h30.208c32.256 0 61.44 19.2 74.138 48.845l20.992 48.947 110.387-81.92c13.926-10.291 30.72-15.872 48.077-15.872h38.758V601.6z m422.605 284.672a29.44 29.44 0 0 1 27.801-19.712H940.8c12.032 0 21.76-9.728 21.76-21.76V563.2a21.76 21.76 0 0 0-21.76-21.76H531.2a21.76 21.76 0 0 0-21.76 21.76v281.6c0 12.032 9.728 21.76 21.76 21.76h232.243c5.018 0 9.933 1.28 14.336 3.738l84.48 47.001 10.906-31.078zM220.825 384h454.4a28.774 28.774 0 1 1 0 57.6h-454.45a28.826 28.826 0 0 1 0-57.6zM613.94 621.722h235.008a28.826 28.826 0 0 1 0 57.6H613.94a28.826 28.826 0 0 1 0-57.6z m0 109.721h88.679a28.774 28.774 0 1 1 0 57.6h-88.679a28.826 28.826 0 0 1 0-57.6z" fill="#333333" p-id="7252"></path></svg>