<svg width="141" height="49" viewBox="0 0 141 49" fill="none" xmlns="http://www.w3.org/2000/svg">
<path d="M19.2986 42.0231C18.8446 42.9586 18.311 43.6624 17.224 43.3496C16.7814 43.2223 16.2337 42.9983 16.0098 42.6439C13.7264 39.0298 11.4854 35.3883 9.28303 31.7241C9.09409 31.4097 9.10246 30.7781 9.29513 30.4622C14.0225 22.7096 18.7848 14.9783 23.5484 7.24777C24.1506 6.27048 25.8271 6.27774 26.4351 7.26402C31.2005 14.9936 35.9637 22.7245 40.6904 30.4777C40.8816 30.7914 40.8635 31.4289 40.6697 31.7512C38.4674 35.4148 36.2171 39.0496 33.9672 42.6844C33.3157 43.7369 31.6989 43.6868 31.0296 42.6039C29.2318 39.6952 27.4425 36.7813 25.6478 33.8706C25.44 33.5335 25.2194 33.2041 24.9661 32.8112C23.06 35.9135 21.2058 38.9313 19.2986 42.0231ZM30.3336 24.2492C29.0768 26.2924 27.8016 28.3248 26.5823 30.3902C26.3928 30.7112 26.2713 31.2951 26.4348 31.5678C28.4156 34.8731 30.4559 38.1427 32.5332 41.5067C34.5959 38.1493 36.6061 34.9028 38.5719 31.6296C38.732 31.3631 38.7263 30.8314 38.5649 30.5627C36.6008 27.2923 34.5931 24.0482 32.5334 20.694C31.7947 21.8935 31.1148 22.9977 30.3336 24.2492ZM19.1465 19.7419C21.0692 22.8752 22.992 26.0085 24.9818 29.2512C27.0776 25.8524 29.1043 22.6071 31.0616 19.3203C31.237 19.0259 31.0863 18.3897 30.8767 18.0373C29.4813 15.6919 28.0278 13.3811 26.5951 11.0578C26.0767 10.2172 25.5635 9.37331 24.9863 8.43019C22.9156 11.7926 20.9303 14.9714 19.0152 18.1919C18.8111 18.5351 19.0177 19.1225 19.1465 19.7419ZM12.0575 32.7406C13.8212 35.6156 15.5849 38.4906 17.385 41.4249C17.5318 41.2571 17.653 41.1517 17.7337 41.0213C19.6615 37.9032 21.6028 34.7929 23.4806 31.6448C23.6594 31.345 23.5753 30.722 23.3772 30.3897C21.604 27.4162 19.78 24.4729 17.9635 21.5254C17.8094 21.2753 17.6011 21.0587 17.3933 20.7952C17.264 20.9955 17.196 21.0968 17.132 21.2006C15.3999 24.0088 13.7355 26.8622 11.9041 29.6042C11.1522 30.7299 11.0627 31.6103 12.0575 32.7406Z" fill="white"/>
<path d="M68.8183 13.1133L77.4972 35.5795L77.2831 35.8765L77.2743 35.8888H75.4333L67.5333 15.0338H66.9966L59.1241 35.8888H57.3104L57.3015 35.8763L57.0967 35.5925L57.0875 35.5796L65.7391 13.1133H68.8183Z" fill="white"/>
<path d="M82.3375 13.1133L89.0734 22.8972L95.734 13.1133H97.7197V13.4043L90.3196 24.3995L90.3088 24.4154V24.4603L90.3195 24.4762L97.7688 35.5902L97.7738 35.5976V35.8888H95.7122L95.7034 35.8757L88.9316 25.7748L82.2649 35.8888H80.2597V35.598L80.2645 35.5908L80.2646 35.5906L87.6913 24.2643L87.6676 24.2295L80.3 13.4119L80.2999 13.4118L80.2948 13.4043V13.1133H82.3375Z" fill="white"/>
<path d="M112.416 13.1133L121.095 35.5795L120.881 35.8765L120.872 35.8888H119.031L111.131 15.0338H110.594L110.579 15.0747L102.722 35.8888H100.908L100.899 35.8765L100.899 35.8763L100.685 35.5795L109.337 13.1133H112.416Z" fill="white"/>
<path d="M128.026 13.1133V33.9997H140.8V35.8888H125.972V13.1133H128.026Z" fill="white"/>
</svg>