<?xml version="1.0" standalone="no"?>
<!DOCTYPE svg PUBLIC "-//W3C//DTD SVG 20010904//EN"
 "http://www.w3.org/TR/2001/REC-SVG-20010904/DTD/svg10.dtd">
<svg version="1.0" xmlns="http://www.w3.org/2000/svg"
 width="4229.000000pt" height="1276.000000pt" viewBox="0 0 4229.000000 1276.000000"
 preserveAspectRatio="xMidYMid meet">

<g transform="translate(0.000000,1276.000000) scale(0.100000,-0.100000)"
fill="#000000" stroke="none">
<path d="M22 12728 c12 -18 240 -331 505 -696 l483 -663 0 -5684 0 -5685 2225
0 2225 0 0 6380 0 6380 -2731 0 -2730 0 23 -32z"/>
<path d="M6707 12668 c37 -51 264 -364 505 -695 l438 -603 0 -5685 0 -5685
2225 0 2225 0 1 2618 0 2617 25 -30 c14 -16 870 -1193 1903 -2615 l1878 -2585
3679 0 3679 0 5 2614 5 2614 1884 -2594 c1036 -1427 1893 -2604 1904 -2616
l20 -23 2854 0 c1569 0 2853 3 2853 8 0 6 -9179 12643 -9240 12721 l-25 31
-2858 -2 -2858 -3 506 -695 505 -695 0 -3742 c0 -2059 -1 -3743 -3 -3743 -1 0
-1454 1998 -3227 4440 l-3225 4439 -2863 1 -2862 0 67 -92z"/>
<path d="M25332 12713 c163 -226 9188 -12647 9210 -12675 l30 -38 3854 0
c2538 0 3854 3 3854 10 0 5 -225 319 -500 697 l-500 686 0 5684 0 5683 -7991
0 -7991 0 34 -47z m11488 -5655 l0 -2281 -32 44 c-17 24 -759 1045 -1648 2269
-889 1224 -1619 2231 -1624 2238 -6 9 327 12 1648 12 l1656 0 0 -2282z"/>
</g>
</svg>
